<?xml version="1.0" encoding="UTF-8" standalone="no"?>
<!-- Created with Inkscape (http://www.inkscape.org/) -->

<svg
   xmlns:dc="http://purl.org/dc/elements/1.1/"
   xmlns:cc="http://creativecommons.org/ns#"
   xmlns:rdf="http://www.w3.org/1999/02/22-rdf-syntax-ns#"
   xmlns:svg="http://www.w3.org/2000/svg"
   xmlns="http://www.w3.org/2000/svg"
   xmlns:sodipodi="http://sodipodi.sourceforge.net/DTD/sodipodi-0.dtd"
   xmlns:inkscape="http://www.inkscape.org/namespaces/inkscape"
   width="278.40625"
   height="245.53125"
   id="svg2"
   sodipodi:version="0.32"
   inkscape:version="0.48.2 r9819"
   version="1.0"
   sodipodi:docname="AJAX1.svg"
   inkscape:output_extension="org.inkscape.output.svg.inkscape">
  <defs
     id="defs4">
    <inkscape:perspective
       sodipodi:type="inkscape:persp3d"
       inkscape:vp_x="0 : 300.5 : 1"
       inkscape:vp_y="0 : 1000 : 0"
       inkscape:vp_z="601 : 300.5 : 1"
       inkscape:persp3d-origin="300.5 : 200.33333 : 1"
       id="perspective3380" />
    <inkscape:perspective
       id="perspective3990"
       inkscape:persp3d-origin="375 : 250 : 1"
       inkscape:vp_z="750 : 375 : 1"
       inkscape:vp_y="0 : 1000 : 0"
       inkscape:vp_x="0 : 375 : 1"
       sodipodi:type="inkscape:persp3d" />
  </defs>
  <sodipodi:namedview
     id="base"
     pagecolor="#ffffff"
     bordercolor="#666666"
     borderopacity="1.0"
     gridtolerance="10000"
     guidetolerance="10"
     objecttolerance="10"
     inkscape:pageopacity="0.0"
     inkscape:pageshadow="2"
     inkscape:zoom="1.8196215"
     inkscape:cx="178.33316"
     inkscape:cy="115.10446"
     inkscape:document-units="px"
     inkscape:current-layer="layer1"
     width="601px"
     height="601px"
     inkscape:window-width="1280"
     inkscape:window-height="1004"
     inkscape:window-x="-8"
     inkscape:window-y="-8"
     showgrid="false"
     fit-margin-top="0"
     fit-margin-left="0"
     fit-margin-right="0"
     fit-margin-bottom="0"
     inkscape:window-maximized="1" />
  <metadata
     id="metadata7">
    <rdf:RDF>
      <cc:Work
         rdf:about="">
        <dc:format>image/svg+xml</dc:format>
        <dc:type
           rdf:resource="http://purl.org/dc/dcmitype/StillImage" />
      </cc:Work>
    </rdf:RDF>
  </metadata>
  <g
     inkscape:label="Layer 1"
     inkscape:groupmode="layer"
     id="layer1"
     transform="translate(-40.375,-316.03125)">
    <rect
       style="color:#000000;fill:#000000;fill-opacity:1;fill-rule:nonzero;stroke:none;stroke-width:0.8735441;marker:none;visibility:visible;display:inline;overflow:visible"
       id="rect3653"
       width="0"
       height="27.202072"
       x="578.73834"
       y="298.1684"
       rx="249.48199"
       ry="27.202072" />
    <path
       style="fill:#ffb71a;fill-opacity:1;fill-rule:nonzero;stroke:none"
       d="m 140.875,1.65625 c -6.07417,0 -11.36211,3.27592 -14.21875,8.15625 L 3.84375,222.5 c -1.394323,2.41772 -2.1875,5.22293 -2.1875,8.21875 0,9.10956 7.359047,16.46875 16.46875,16.46875 l 245.46875,0 c 9.10957,0 16.46875,-7.35922 16.46875,-16.46875 0,-3.11264 -0.84834,-6.0195 -2.34375,-8.5 l 0,-0.0312 -122.5625,-212.25 c -2.88876,-4.98148 -8.1837,-8.2813 -14.28125,-8.2813 z"
       transform="translate(38.71875,314.375)"
       id="path11"
       inkscape:connector-curvature="0" />
    <path
       inkscape:connector-curvature="0"
       style="fill:#000000;fill-opacity:1;fill-rule:nonzero;stroke:none"
       d="m 191.89576,325.46624 c -2.44125,-4.2725 -7.04125,-7.15 -12.3125,-7.15 -5.27125,0 -9.8725,2.88 -12.31411,7.15 L 44.687393,537.79499 c -1.280526,2.13024 -2.015388,4.62287 -2.015388,7.28887 0,7.82719 6.345212,14.17362 14.1735,14.17362 l 245.476505,0 c 7.82875,0 14.17375,-6.34643 14.17375,-14.17362 0,-2.65738 -0.73125,-5.14513 -2.00375,-7.26937 L 191.89576,325.46624 z"
       id="path13" />
    <path
       inkscape:connector-curvature="0"
       style="fill:#ffb71a;fill-opacity:1;fill-rule:nonzero;stroke:none"
       d="m 72.186155,536.21555 214.818755,-0.0196 -107.422,-185.99037 -107.396755,186.01 z"
       id="path15" />
    <path
       style="fill:#000000;stroke:none"
       d="m 179.42452,399.40307 c -7.38,0 -13.32125,5.22949 -12.78125,11.59375 l 4.96875,78.28125 c 0.27,1.74123 0.98875,3.24219 2.25,4.53125 1.43875,1.28778 3.58375,2.125 5.5625,2.125 2.16,0 4.25,-0.83722 5.78125,-2.125 1.26,-1.28906 2.06745,-2.86442 2.15625,-4.53125 l 5.125,-78.28125 0,-0.6875 c 0,-5.98544 -5.77125,-10.90625 -13.0625,-10.90625 z m 0.1875,105 c -7.02,0 -12.875,5.67138 -12.875,12.78125 0,7.289 5.855,13.03125 12.875,13.03125 7.19875,0 12.96875,-5.74225 12.96875,-13.03125 0,-7.10987 -5.77,-12.78125 -12.96875,-12.78125 z"
       id="path33"
       inkscape:connector-curvature="0" />
  </g>
</svg>
